<svg width="40" height="41" viewBox="0 0 40 41" fill="none" xmlns="http://www.w3.org/2000/svg">
    <rect x="0.330078" width="39.3333" height="40.3333" rx="19.6667" fill="#786EF5"/>
    <path d="M28.8701 13.9939C28.8701 13.4548 28.6609 12.9359 28.2921 12.5485C28.2689 12.5283 28.249 12.5081 28.229 12.4845L28.2257 12.4777C27.847 12.1105 27.3421 11.905 26.8206 11.905H13.4767C12.9319 11.9083 12.4071 12.1273 12.0251 12.5182C11.6397 12.909 11.4238 13.4379 11.4238 13.9905V15.0046V25.8871C11.4238 26.4262 11.6331 26.945 12.0018 27.3325C12.0251 27.3527 12.045 27.3729 12.0683 27.3965L12.0716 27.4032C12.4503 27.7705 12.9552 27.976 13.4767 27.976H26.8206C27.3654 27.9726 27.8902 27.7536 28.2722 27.3628C28.6575 26.972 28.8735 26.443 28.8735 25.8905V24.8763C28.8735 24.8763 28.8735 24.8763 28.8735 24.873V13.9939H28.8701Z"
          fill="white"/>
    <path d="M24.0436 23.4175V21.5207C24.0436 21.487 24.0503 21.4567 24.0636 21.4263C24.0769 21.396 24.0935 21.3691 24.1167 21.3455L24.7246 20.7289C24.7578 20.6952 24.801 20.6716 24.8475 20.6615C24.894 20.6514 24.9439 20.6582 24.987 20.675C25.0302 20.6952 25.0701 20.7255 25.0967 20.766C25.1232 20.8064 25.1365 20.8536 25.1365 20.9041V24.526C25.1365 24.59 25.1099 24.654 25.0668 24.7012C25.0203 24.7484 24.9605 24.7719 24.894 24.7719H21.4161C21.3662 24.7719 21.3197 24.7585 21.2799 24.7315C21.24 24.7046 21.2101 24.6675 21.1902 24.6203C21.1702 24.5765 21.1669 24.526 21.1769 24.4788C21.1868 24.4317 21.2101 24.3879 21.2433 24.3542L21.8512 23.7376C21.8977 23.6904 21.9575 23.6668 22.024 23.6668H23.8011C23.8643 23.6668 23.9274 23.6399 23.9739 23.5961C24.0171 23.5456 24.0436 23.4815 24.0436 23.4175ZM21.4127 15.1697C21.3662 15.1697 21.3164 15.1832 21.2765 15.2102C21.2367 15.2371 21.2068 15.2742 21.1868 15.3214C21.1669 15.3652 21.1636 15.4157 21.1736 15.4629C21.1835 15.51 21.2068 15.5538 21.24 15.5875L21.8479 16.2041C21.8944 16.2513 21.9542 16.2748 22.0206 16.2748H23.7978C23.831 16.2748 23.8609 16.2816 23.8908 16.2951C23.9207 16.3085 23.9473 16.3254 23.9706 16.349C23.9938 16.3725 24.0104 16.3995 24.0237 16.4298C24.037 16.4602 24.0436 16.4905 24.0436 16.5242V18.5524C24.0436 18.5861 24.0503 18.6164 24.0636 18.6468C24.0769 18.6771 24.0935 18.704 24.1167 18.7276L24.7246 19.3442C24.7578 19.3779 24.801 19.4015 24.8475 19.4116C24.894 19.4217 24.9439 19.4149 24.987 19.3981C25.0302 19.3779 25.0701 19.3475 25.0967 19.3071C25.1232 19.2667 25.1365 19.2195 25.1365 19.169V15.4123C25.1365 15.3483 25.1099 15.2843 25.0668 15.2371C25.0203 15.19 24.9605 15.1664 24.894 15.1664H21.4127V15.1697ZM16.7289 23.6635C16.6957 23.6635 16.6658 23.6567 16.6359 23.6433C16.606 23.6298 16.5795 23.6129 16.5562 23.5894C16.5329 23.5658 16.5163 23.5388 16.503 23.5085C16.4898 23.4782 16.4831 23.4478 16.4831 23.4142V21.5173C16.4831 21.4533 16.4565 21.3893 16.4134 21.3421L15.8055 20.7255C15.7722 20.6919 15.7291 20.6683 15.6826 20.6582C15.636 20.6481 15.5862 20.6548 15.543 20.6716C15.4999 20.6919 15.46 20.7222 15.4334 20.7626C15.4068 20.803 15.3936 20.8502 15.3936 20.9007V24.526C15.3936 24.59 15.4201 24.654 15.4633 24.7012C15.5098 24.7484 15.5696 24.7719 15.636 24.7719H19.2104C19.2569 24.7719 19.3067 24.7585 19.3465 24.7315C19.3864 24.7046 19.4163 24.6641 19.4362 24.6203C19.4562 24.5765 19.4595 24.526 19.4495 24.4788C19.4396 24.4317 19.4163 24.3879 19.3831 24.3542L18.7752 23.7376C18.7287 23.6904 18.6689 23.6668 18.6025 23.6668H16.7289V23.6635ZM19.2236 15.1697H15.6493C15.5862 15.1697 15.5231 15.1967 15.4766 15.2405C15.4301 15.2877 15.4068 15.3483 15.4068 15.4157V19.1723C15.4068 19.2195 15.4201 19.2701 15.4467 19.3105C15.4733 19.3509 15.5098 19.3812 15.5563 19.4015C15.5995 19.4217 15.6493 19.425 15.6958 19.4149C15.7423 19.4048 15.7855 19.3812 15.8188 19.3475L16.4266 18.731C16.4499 18.7074 16.4665 18.6804 16.4798 18.6501C16.4931 18.6198 16.4997 18.5895 16.4997 18.5558V16.5275C16.4997 16.4938 16.5064 16.4635 16.5197 16.4332C16.5329 16.4029 16.5496 16.3759 16.5728 16.3523C16.5961 16.3288 16.6226 16.3119 16.6525 16.2984C16.6824 16.285 16.7123 16.2782 16.7455 16.2782H18.6191C18.6822 16.2782 18.7453 16.2513 18.7918 16.2075L19.3997 15.5909C19.4329 15.5572 19.4562 15.5134 19.4661 15.4662C19.4761 15.4191 19.4695 15.3685 19.4528 15.3247C19.4329 15.2809 19.403 15.2405 19.3632 15.2136C19.32 15.1832 19.2735 15.1697 19.2236 15.1697Z"
          fill="#786EF5"/>
</svg>
