<svg width="41" height="41" viewBox="0 0 41 41" fill="none" xmlns="http://www.w3.org/2000/svg">
    <rect width="40.3333" height="40.3333" rx="20.1667" fill="#4873FC"/>
    <path d="M22.6535 23.2357C23.8821 22.0488 23.9191 20.0874 22.736 18.8548C21.5529 17.6222 19.5978 17.5851 18.3692 18.772C17.1405 19.9589 17.1036 21.9203 18.2867 23.1529C19.4698 24.3855 21.4249 24.4225 22.6535 23.2357Z"
          fill="white"/>
    <path d="M20.5111 25.6493C19.3931 25.6438 18.3149 25.2331 17.475 24.493C16.635 23.7528 16.0901 22.733 15.9405 21.6216H11.2461V25.3395C11.2461 25.6682 11.3762 27.2252 11.6079 27.4576C11.8396 27.69 12.1538 27.8206 12.4814 27.8206H28.5407C28.8683 27.8206 29.1825 27.69 29.4142 27.4576C29.6459 27.2252 29.776 25.6682 29.776 25.3395V21.6216H25.0818C24.9317 22.7328 24.3866 23.7524 23.5468 24.4924C22.7069 25.2325 21.6289 25.6433 20.5111 25.6493Z"
          fill="white"/>
    <path d="M29.776 15.4271C29.776 15.0984 29.6459 14.7832 29.4142 14.5508C29.1825 14.3184 28.8683 14.1878 28.5407 14.1878H24.8347L23.9614 13.3117C23.7298 13.0793 23.4157 12.9487 23.0881 12.9486H17.9342C17.6066 12.9486 17.2924 13.0793 17.0608 13.3117L16.1875 14.1878H12.4814C12.1538 14.1878 11.8396 14.3184 11.6079 14.5508C11.3762 14.7832 11.2461 15.0984 11.2461 15.4271V20.1185H15.9886C16.1872 19.0609 16.7479 18.1063 17.5736 17.4194C18.3994 16.7325 19.4384 16.3566 20.511 16.3566C21.5837 16.3566 22.6227 16.7325 23.4485 17.4194C24.2742 18.1063 24.8349 19.0609 25.0335 20.1185H29.776V15.4271ZM27.923 16.6664H26.6877C26.5247 16.6652 26.3688 16.5994 26.254 16.4833C26.1392 16.3672 26.0747 16.2103 26.0747 16.0468C26.0747 15.8832 26.1392 15.7263 26.254 15.6103C26.3688 15.4942 26.5247 15.4284 26.6877 15.4271H27.9229C28.0859 15.4284 28.2419 15.4942 28.3567 15.6103C28.4715 15.7263 28.536 15.8832 28.536 16.0468C28.536 16.2103 28.4715 16.3672 28.3567 16.4833C28.2419 16.5994 28.0859 16.6652 27.9229 16.6664H27.923Z"
          fill="white"/>
</svg>
