<svg width="41" height="41" viewBox="0 0 41 41" fill="none" xmlns="http://www.w3.org/2000/svg">
    <rect width="40.3333" height="40.3333" rx="20.1667" fill="#FB677D"/>
    <path fill-rule="evenodd" clip-rule="evenodd"
          d="M14.5464 23.1251C15.4894 24.0541 16.6909 24.6867 17.9989 24.943C19.307 25.1993 20.6628 25.0677 21.8949 24.565C22.2419 24.4233 22.5748 24.2541 22.8905 24.0595C23.1463 24.3129 23.6146 24.7773 24.1566 25.3175L27.6432 28.7928C27.7377 28.887 27.8498 28.9616 27.9732 29.0126C28.0966 29.0635 28.2289 29.0898 28.3625 29.0897C28.4961 29.0897 28.6284 29.0635 28.7518 29.0125C28.8752 28.9615 28.9873 28.8868 29.0818 28.7926L29.2979 28.5771C29.4886 28.3869 29.5958 28.1289 29.5957 27.86C29.5957 27.5911 29.4885 27.3331 29.2977 27.143L24.6409 22.5013C24.7387 22.3773 24.8321 22.2496 24.921 22.1185C25.662 21.0261 26.0574 19.7419 26.0574 18.4282C26.0574 17.1144 25.662 15.8302 24.921 14.7378C24.1801 13.6455 23.127 12.7941 21.8949 12.2914C20.6628 11.7886 19.307 11.6571 17.9989 11.9133C16.6909 12.1696 15.4894 12.8023 14.5464 13.7312C13.9202 14.348 13.4235 15.0803 13.0846 15.8862C12.7457 16.6921 12.5713 17.5558 12.5713 18.4282C12.5713 19.3005 12.7457 20.1642 13.0846 20.9701C13.4235 21.776 13.9202 22.5083 14.5464 23.1251ZM18.5842 22.6022C17.7917 22.4445 17.0637 22.0554 16.4923 21.484C16.1129 21.1047 15.812 20.6543 15.6066 20.1586C15.4013 19.6629 15.2956 19.1316 15.2956 18.595C15.2956 18.0585 15.4013 17.5272 15.6066 17.0315C15.812 16.5358 16.1129 16.0854 16.4923 15.706C17.0637 15.1346 17.7917 14.7455 18.5842 14.5879C19.3768 14.4302 20.1983 14.5111 20.9448 14.8204C21.6914 15.1296 22.3294 15.6533 22.7784 16.3252C23.2273 16.997 23.4669 17.787 23.4669 18.595C23.4669 19.4031 23.2273 20.193 22.7784 20.8649C22.3294 21.5368 21.6914 22.0604 20.9448 22.3697C20.1983 22.6789 19.3768 22.7598 18.5842 22.6022Z"
          fill="white"/>
</svg>
