<svg width="41" height="41" viewBox="0 0 41 41" fill="none" xmlns="http://www.w3.org/2000/svg">
    <rect x="0.330078" width="40.3333" height="40.3333" rx="20.1667" fill="#6893EA"/>
    <path d="M30.0084 14.2177C30.0079 13.7014 29.8064 13.2056 29.4467 12.8353C29.4269 12.8148 29.4067 12.7951 29.3861 12.7755L29.3803 12.7702C29.0116 12.419 28.5221 12.2229 28.0129 12.2222H13.2595C12.7308 12.2238 12.2241 12.4345 11.8503 12.8083C11.4764 13.1822 11.2657 13.6888 11.2642 14.2175V21.8266C11.2642 21.8951 11.2667 21.9631 11.2704 22.0309L11.2502 25.2355L11.2498 25.2395L11.2246 30.9999L15.0755 25.3226L27.0397 25.3595C28.9828 25.3595 30.0086 24.3335 30.0086 22.3905L30.0084 14.2177Z"
          fill="white"/>
    <path d="M21.4315 21.7287H20.4746C20.4293 21.7287 20.3851 21.7143 20.3485 21.6876C20.3119 21.6609 20.2847 21.6232 20.2709 21.58L19.9082 20.4455H17.8565L17.4975 21.5794C17.4838 21.6228 17.4566 21.6606 17.42 21.6874C17.3833 21.7143 17.339 21.7287 17.2936 21.7287H16.3476C16.3133 21.7287 16.2794 21.7205 16.2489 21.7046C16.2184 21.6887 16.1922 21.6657 16.1725 21.6376C16.1527 21.6094 16.1401 21.5769 16.1356 21.5428C16.1311 21.5087 16.1349 21.4741 16.1467 21.4417L18.0909 16.1007C18.1059 16.0595 18.1333 16.0239 18.1692 15.9987C18.2051 15.9735 18.248 15.96 18.2919 15.9601H19.5319C19.5761 15.96 19.6192 15.9737 19.6552 15.9991C19.6913 16.0246 19.7186 16.0606 19.7334 16.1022L21.633 21.4432C21.6445 21.4755 21.648 21.51 21.6434 21.544C21.6387 21.5779 21.626 21.6102 21.6062 21.6382C21.5865 21.6662 21.5603 21.689 21.5299 21.7048C21.4995 21.7205 21.4657 21.7287 21.4315 21.7287ZM19.6105 19.4478L18.991 17.5088C18.9552 17.4031 18.9122 17.3 18.8622 17.2003C18.8622 17.2003 18.8152 17.3264 18.7616 17.4928L18.1341 19.4478L19.6105 19.4478Z"
          fill="#6893EA"/>
    <path d="M25.7055 21.7288H24.7697C24.7343 21.7288 24.7003 21.7147 24.6753 21.6897C24.6503 21.6646 24.6362 21.6307 24.6362 21.5953V21.1374H24.6201C24.4997 21.3551 24.3213 21.535 24.1046 21.6572C23.888 21.7793 23.6417 21.839 23.3931 21.8294C23.2211 21.8389 23.049 21.8138 22.8869 21.7554C22.7248 21.697 22.5762 21.6066 22.4498 21.4895C22.3334 21.3699 22.2428 21.2277 22.1836 21.0717C22.1245 20.9156 22.098 20.7491 22.1058 20.5824C22.1058 19.7832 22.5792 19.3219 23.5259 19.1985L24.6443 19.0497C24.6443 18.5991 24.4002 18.3739 23.9121 18.3738C23.4898 18.3747 23.0749 18.4849 22.7077 18.6936C22.6875 18.7045 22.6647 18.71 22.6418 18.7095C22.6188 18.709 22.5963 18.7025 22.5766 18.6907C22.5569 18.6788 22.5405 18.6621 22.5293 18.6421C22.518 18.622 22.5121 18.5994 22.5122 18.5764V17.9397C22.5117 17.9145 22.5186 17.8896 22.5319 17.8681C22.5452 17.8466 22.5645 17.8294 22.5874 17.8186C22.7971 17.7289 23.0151 17.6603 23.2383 17.6135C23.5132 17.5476 23.7945 17.5125 24.0771 17.5089C25.2517 17.5089 25.839 18.0949 25.8391 19.2669V21.5953C25.8391 21.6128 25.8356 21.6302 25.8289 21.6464C25.8222 21.6626 25.8123 21.6773 25.7999 21.6897C25.7875 21.7021 25.7728 21.7119 25.7566 21.7186C25.7404 21.7253 25.723 21.7288 25.7055 21.7288ZM24.6442 20.0553V19.7777L23.896 19.8743C23.4829 19.928 23.2764 20.1143 23.2765 20.4334C23.2744 20.5002 23.2868 20.5665 23.3129 20.628C23.3389 20.6894 23.378 20.7445 23.4273 20.7894C23.5405 20.8865 23.6867 20.9362 23.8356 20.9282C23.945 20.9319 24.0539 20.9116 24.1546 20.8689C24.2553 20.8262 24.3456 20.762 24.419 20.6808C24.5716 20.509 24.6523 20.285 24.6442 20.0553Z"
          fill="#6893EA"/>
</svg>
