<svg width="41" height="41" viewBox="0 0 41 41" fill="none" xmlns="http://www.w3.org/2000/svg">
    <rect width="40.3333" height="40.3333" rx="20.1667" fill="#68D4CF"/>
    <path d="M12.791 27.1378C14.2145 28.5613 16.0281 29.5307 18.0025 29.9234C19.977 30.3162 22.0235 30.1146 23.8834 29.3442C25.7433 28.5738 27.3329 27.2692 28.4513 25.5953C29.5697 23.9215 30.1667 21.9536 30.1667 19.9404C30.1667 17.9273 29.5697 15.9594 28.4513 14.2856C27.3329 12.6117 25.7433 11.3071 23.8834 10.5367C22.0235 9.7663 19.977 9.56472 18.0025 9.95744C16.0281 10.3502 14.2145 11.3196 12.791 12.743C11.8457 13.6882 11.096 14.8103 10.5844 16.0452C10.0729 17.2801 9.80957 18.6038 9.80957 19.9404C9.80957 21.2771 10.0729 22.6007 10.5844 23.8357C11.096 25.0706 11.8457 26.1927 12.791 27.1378Z"
          fill="white"/>
    <path d="M17.4326 16.536V23.3454C17.4326 23.5007 17.4733 23.6533 17.5507 23.788C17.6281 23.9227 17.7395 24.0347 17.8737 24.1129C18.0079 24.1912 18.1602 24.2328 18.3155 24.2338C18.4709 24.2347 18.6237 24.1949 18.7589 24.1184L24.4292 20.9061C24.5627 20.8305 24.6743 20.7216 24.7532 20.59C24.8321 20.4584 24.8756 20.3087 24.8794 20.1553C24.8832 20.0019 24.8473 19.8502 24.775 19.7148C24.7028 19.5795 24.5967 19.4651 24.4672 19.383L18.7969 15.7859C18.6626 15.7007 18.5078 15.6531 18.3488 15.6481C18.1898 15.6431 18.0324 15.6809 17.893 15.7576C17.7536 15.8342 17.6373 15.9469 17.5563 16.0838C17.4753 16.2208 17.4326 16.3769 17.4326 16.536Z"
          fill="#68D4CF"/>
</svg>
